<svg xmlns="http://www.w3.org/2000/svg" width="150" height="50" viewBox="0,0,150,50"><path fill="#222" d="M23.90 20.04L23.99 20.14L23.97 20.11Q19.64 20.09 15.95 19.10L15.99 19.14L15.91 19.06Q17.43 23.62 17.62 28.46L17.59 28.43L17.74 28.58Q17.90 33.35 16.69 37.96L16.71 37.98L16.64 37.91Q19.54 37.39 23.05 37.24L22.95 37.14L22.90 37.09Q26.81 36.89 28.60 34.46L28.61 34.46L28.62 34.47Q30.19 32.46 30.38 28.35L30.44 28.41L30.38 28.36Q30.43 26.57 29.97 24.86L30.03 24.92L29.93 24.82Q28.80 20.22 24.08 20.22ZM12.05 42.11L12.08 42.15L12.03 42.09Q14.86 36.36 14.86 29.66L14.86 29.66L14.97 29.77Q14.89 21.17 10.59 14.16L10.74 14.31L10.74 14.31Q15.93 16.91 24.19 17.10L24.27 17.18L24.23 17.14Q32.98 17.21 33.33 24.37L33.31 24.35L33.44 24.49Q33.49 27.13 33.46 28.57L33.49 28.61L33.49 28.60Q33.31 33.19 32.47 35.36L32.62 35.50L32.51 35.40Q32.20 36.60 31.43 37.44L31.29 37.30L31.43 37.44Q29.90 38.80 27.27 39.30L27.39 39.41L27.35 39.37Q25.84 39.72 22.83 39.95L22.83 39.95L22.84 39.96Q16.70 40.41 12.09 42.16ZM30.03 42.05L30.02 42.04L29.99 42.01Q32.80 41.73 34.43 40.25L34.34 40.15L34.44 40.26Q35.54 38.38 35.50 35.64L35.45 35.59L35.61 35.76Q35.61 34.38 35.46 30.88L35.50 30.92L35.02 26.25L35.09 26.33Q34.80 23.94 33.84 21.84L33.84 21.84L33.82 21.82Q33.33 20.91 32.65 20.27L32.64 20.25L32.72 20.18L32.65 20.12Q30.92 17.13 26.50 16.75L26.65 16.90L26.53 16.77Q23.88 16.68 16.88 15.95L16.88 15.96L16.89 15.97Q13.51 15.40 9.82 13.39L9.84 13.41L9.92 13.49Q14.74 20.86 14.74 29.61L14.78 29.66L14.82 29.69Q14.67 36.55 11.32 42.71L11.45 42.85L11.29 42.69Q12.04 42.49 13.38 41.99L13.46 42.08L13.37 41.99Q13.06 42.86 12.18 44.34L12.24 44.40L12.10 44.26Q15.20 43.25 18.55 42.75L18.51 42.72L18.50 42.70Q20.67 42.48 24.33 42.36L24.29 42.33L24.27 42.30Q28.18 42.22 30.01 42.03ZM30.11 28.46L29.98 28.33L30.10 28.46Q29.61 36.34 22.91 36.72L22.97 36.78L23.00 36.81Q21.08 36.94 19.02 37.21L18.92 37.10L19.03 37.21Q19.64 33.26 19.64 29.60L19.62 29.58L19.58 29.54Q19.74 26.01 19.02 22.17L18.93 22.08L18.90 22.05Q21.24 22.48 25.92 22.48L25.95 22.52L25.95 22.52Q27.31 22.35 28.95 23.31L28.93 23.28L28.95 23.31Q30.20 25.55 30.05 28.40Z"/><path fill="#333" d="M97.73 29.92L97.76 29.96L97.64 29.84Q95.19 29.79 93.86 31.01L93.83 30.97L93.76 30.91Q92.47 32.17 92.78 34.68L92.87 34.78L92.86 34.77Q93.14 37.26 94.36 38.51L94.30 38.45L94.29 38.44Q95.43 39.84 97.56 39.77L97.47 39.68L97.56 39.77Q98.19 39.83 98.38 39.83L98.19 39.63L98.29 39.74Q101.80 39.10 101.92 34.49L101.95 34.52L101.84 34.42Q102.09 32.23 101.40 31.43L101.38 31.41L101.33 31.36Q100.32 30.12 97.77 29.97ZM101.04 41.65L101.03 41.64L100.99 41.60Q99.74 42.25 98.18 42.17L98.11 42.11L98.21 42.20Q94.36 42.39 93.07 39.81L93.06 39.80L93.11 39.85Q92.75 45.01 91.42 49.27L91.52 49.38L91.56 49.42Q89.69 49.83 88.06 50.55L88.11 50.61L88.14 50.64Q90.73 44.70 90.46 37.73L90.30 37.57L90.41 37.69Q90.16 30.85 87.27 24.80L87.26 24.79L87.16 24.69Q89.27 26.04 90.99 26.50L90.89 26.40L91.46 27.92L91.33 27.79Q91.51 28.20 91.78 29.30L91.77 29.29L91.69 29.22Q92.80 27.24 96.38 27.05L96.35 27.02L96.43 27.10Q97.32 27.08 98.19 27.08L98.19 27.07L98.70 27.09L98.72 27.11Q98.80 27.07 98.99 27.11L98.88 27.00L99.17 26.99L99.23 27.05Q101.34 27.37 102.06 27.60L102.06 27.60L102.12 27.65Q103.56 28.07 104.44 29.02L104.48 29.06L104.35 28.93Q105.27 30.19 105.23 31.60L105.19 31.56L105.31 31.68Q105.28 34.51 104.49 37.18L104.49 37.18L104.32 37.01Q103.37 40.59 101.01 41.62ZM105.34 42.29L105.24 42.16L105.28 42.20Q106.43 40.27 106.74 36.15L106.78 36.20L106.64 36.05Q106.91 34.42 106.91 33.17L106.85 33.11L106.80 33.06Q106.85 31.58 106.08 30.17L106.19 30.28L106.17 30.26Q105.70 29.75 105.20 29.37L105.11 29.27L104.95 29.00L104.75 28.69L104.79 28.61L104.72 28.54Q103.18 26.69 98.84 26.69L98.79 26.65L98.22 26.68L98.23 26.70Q93.56 26.67 91.92 28.27L91.89 28.23L91.84 28.19Q91.60 27.61 91.45 27.11L91.52 27.18L91.33 26.19L91.22 26.08Q88.77 25.50 86.56 24.01L86.64 24.09L86.60 24.05Q89.89 30.38 90.19 37.62L90.05 37.47L90.15 37.57Q90.44 44.83 87.58 51.30L87.50 51.22L89.46 50.32L89.58 50.45Q89.17 51.02 88.48 52.58L88.54 52.64L88.51 52.61Q91.37 51.70 93.70 51.36L93.68 51.35L93.63 51.29Q94.62 46.35 94.78 42.62L94.85 42.69L94.76 42.60Q96.26 44.18 99.88 44.41L99.98 44.51L99.96 44.49Q103.75 44.59 105.20 42.15L105.25 42.21ZM99.60 32.14L99.56 32.10L99.55 32.09Q100.17 31.98 101.27 32.32L101.28 32.33L101.34 32.40Q101.68 33.45 101.64 34.63L101.66 34.65L101.55 34.55Q101.53 35.44 101.34 36.09L101.42 36.17L101.48 36.23Q100.71 39.07 98.20 39.38L98.23 39.41L98.30 39.37L98.29 39.36Q98.17 39.31 98.06 39.35L98.04 39.34L97.49 39.31L97.53 39.36Q96.43 39.44 95.44 38.94L95.44 38.95L95.01 36.80L95.09 36.88Q94.95 34.57 96.24 33.54L96.15 33.45L96.21 33.51Q97.15 32.35 99.55 32.09Z"/><path fill="#222" d="M81.81 23.14L81.71 23.04L81.69 23.03Q79.82 25.68 77.15 31.31L77.26 31.42L75.33 35.73L75.18 35.59Q74.37 37.55 73.04 39.80L73.11 39.87L73.01 39.78Q73.45 39.75 71.77 39.79L71.82 39.83L71.78 39.80Q71.76 39.77 70.50 39.77L70.50 39.78L70.57 39.84Q69.87 38.38 66.94 31.23L66.98 31.27L66.89 31.17Q64.85 25.94 62.76 22.93L62.71 22.89L62.74 22.92Q63.44 25.94 63.44 29.10L63.43 29.08L63.50 29.15Q63.34 35.51 60.37 41.06L60.39 41.08L60.45 41.15Q59.03 41.40 56.67 42.12L56.81 42.26L56.69 42.14Q60.51 36.60 60.51 29.36L60.37 29.23L60.46 29.31Q60.48 20.39 55.08 13.42L55.04 13.39L55.04 13.39Q56.68 14.11 59.04 14.80L59.14 14.90L59.07 14.83Q66.14 21.60 72.23 34.92L72.18 34.87L72.26 34.95Q75.61 27.79 77.81 24.28L77.80 24.27L77.86 24.33Q81.55 18.65 85.51 15.19L85.32 15.01L85.46 15.14Q86.58 14.78 88.94 14.02L88.97 14.04L88.99 14.06Q83.98 20.67 83.98 29.27L84.13 29.42L84.08 29.37Q84.02 35.97 87.44 41.49L87.48 41.52L87.52 41.57Q86.17 41.25 83.43 40.64L83.47 40.67L83.35 40.55Q81.11 35.88 81.11 29.90L80.95 29.75L81.04 29.84Q81.01 26.37 81.69 23.02ZM83.30 41.07L83.22 40.99L83.18 40.95Q83.94 41.14 85.39 41.41L85.43 41.45L85.39 41.42Q85.84 42.17 86.79 43.66L86.71 43.57L86.69 43.56Q88.80 43.95 92.26 45.16L92.36 45.27L92.31 45.21Q86.16 38.99 86.16 29.17L86.08 29.09L86.15 29.16Q86.13 21.41 90.51 15.28L90.35 15.12L88.18 15.85L88.28 15.95Q89.20 14.31 89.85 13.44L89.94 13.53L89.89 13.48Q88.14 14.24 85.51 14.78L85.51 14.78L85.37 14.64Q78.64 20.77 72.59 33.37L72.61 33.40L72.65 33.43Q67.45 22.45 62.51 17.20L62.50 17.19L62.54 17.23Q62.12 17.12 61.55 17.01L61.47 16.93L60.23 15.61L60.29 15.67Q59.82 15.12 59.13 14.51L58.94 14.32L58.99 14.37Q55.96 13.39 54.17 12.67L54.16 12.66L54.23 12.73Q60.24 19.96 60.24 29.36L60.17 29.29L60.11 29.23Q60.11 36.85 55.96 42.71L56.05 42.80L56.12 42.87Q56.68 42.51 57.97 42.09L57.92 42.04L57.92 42.04Q57.88 42.38 56.47 44.48L56.39 44.39L56.54 44.54Q58.30 44.02 61.80 43.26L61.69 43.14L61.80 43.26Q65.41 36.09 65.22 28.33L65.30 28.40L65.26 28.37Q66.90 32.48 70.36 40.36L70.27 40.26L70.36 40.36Q70.56 40.26 70.79 40.26L70.69 40.15L71.22 40.15L71.28 40.21Q71.83 40.99 72.63 42.28L72.48 42.13L72.61 42.26Q74.17 42.19 74.17 42.19L74.19 42.21L74.26 42.27Q75.15 42.14 75.79 42.21L75.76 42.18L75.92 42.34Q77.29 38.11 80.64 30.12L80.67 30.15L80.68 30.16Q80.61 35.64 83.20 40.97Z"/><path fill="#444" d="M46.11 29.67L46.25 29.81L46.18 29.75Q42.00 29.56 41.43 32.61L41.36 32.54L41.47 32.65Q41.18 33.61 41.37 34.49L41.37 34.49L41.43 34.56Q41.33 35.21 41.79 36.62L41.91 36.75L41.86 36.69Q42.91 39.84 46.23 39.69L46.35 39.81L46.36 39.83Q48.37 39.89 49.70 38.33L49.64 38.26L49.66 38.29Q50.88 36.81 50.88 34.75L50.93 34.80L50.87 34.74Q51.02 34.17 50.87 33.10L50.83 33.07L50.90 33.14Q50.77 32.16 50.35 31.48L50.39 31.52L50.37 31.50Q48.74 29.83 46.15 29.72ZM50.97 48.17L51.01 48.21L50.95 48.14Q49.17 48.77 41.10 49.15L41.18 49.22L41.00 49.04Q39.42 49.21 37.78 48.37L37.75 48.35L37.83 48.42Q38.58 47.39 40.41 45.60L40.54 45.73L40.39 45.58Q42.79 46.61 44.89 46.42L44.87 46.40L44.94 46.48Q47.85 46.22 48.68 45.95L48.71 45.99L48.73 46.01Q50.93 45.27 50.93 43.48L50.86 43.41L50.92 43.47Q50.99 43.31 50.92 43.09L50.75 42.92L50.77 41.46L50.86 41.55Q50.65 40.57 50.65 39.77L50.64 39.77L50.75 39.87Q49.42 42.16 46.03 42.16L45.94 42.07L45.89 42.02Q42.07 42.09 40.44 39.88L40.39 39.84L40.43 39.88Q39.33 38.35 38.53 33.93L38.48 33.88L38.51 33.92Q38.32 32.51 38.32 31.10L38.16 30.93L38.17 30.95Q38.27 29.25 39.18 28.27L39.18 28.27L39.23 28.31Q40.91 26.91 45.55 26.91L45.39 26.74L47.28 27.08L47.23 27.02Q50.49 27.43 51.82 29.38L51.66 29.21L51.82 29.37Q51.86 28.39 52.28 26.75L52.36 26.83L52.27 26.74Q54.14 26.40 55.89 25.67L55.85 25.63L55.90 25.69Q53.37 31.91 53.37 39.14L53.33 39.10L53.29 39.06Q53.31 41.75 53.69 44.37L53.63 44.32L53.64 44.32Q53.79 44.97 53.71 45.66L53.79 45.73L53.72 45.66Q53.49 46.99 52.27 47.75L52.29 47.77L52.46 47.94Q51.82 48.06 50.98 48.17ZM53.97 51.13L54.06 51.21L54.08 51.24Q55.41 51.16 56.17 50.21L56.22 50.26L56.32 50.36Q56.49 49.24 56.38 48.51L56.43 48.56L56.52 48.65Q56.30 47.90 56.11 47.14L56.18 47.21L56.23 47.26Q54.99 42.02 55.34 36.77L55.28 36.71L55.21 36.65Q55.59 31.23 57.72 26.40L57.67 26.35L55.75 27.47L55.63 27.36Q55.93 26.82 56.16 26.25L56.15 26.24L56.72 25.17L56.57 25.02Q54.36 26.13 52.15 26.55L52.13 26.52L52.03 26.42Q51.78 27.36 51.63 28.38L51.64 28.39L51.64 28.39Q49.45 26.39 45.41 26.39L45.34 26.31L43.67 26.40L43.67 26.40Q40.37 26.34 38.70 27.75L38.80 27.85L38.86 27.91Q37.89 28.85 37.93 30.75L37.94 30.76L37.87 30.68Q38.02 33.28 39.05 37.54L39.06 37.55L38.98 37.47Q39.50 39.44 40.72 40.85L40.65 40.78L40.97 41.10L41.08 41.20L40.97 41.10Q42.15 43.46 44.74 43.99L44.68 43.93L44.65 43.90Q46.10 44.25 47.55 44.29L47.60 44.34L47.62 44.36Q49.28 44.31 50.35 43.93L50.32 43.90L50.51 44.09Q49.87 45.62 47.20 45.96L47.23 45.98L47.19 45.94Q46.17 46.15 45.49 46.15L45.46 46.12L44.97 46.01L45.08 46.12Q42.20 46.05 40.52 45.10L40.44 45.02L38.90 46.90L38.74 46.75Q37.93 47.61 37.09 48.56L37.21 48.68L37.21 48.68Q38.10 49.11 39.09 49.30L39.15 49.37L38.25 50.22L38.31 50.28Q40.98 51.31 46.62 51.31L46.61 51.30L46.83 51.30L46.76 51.23Q50.37 51.22 53.95 51.11ZM48.11 32.10L48.12 32.10L48.04 32.02Q49.42 32.04 50.34 32.45L50.31 32.43L50.18 32.30Q50.41 32.84 50.49 33.52L50.52 33.55L50.46 33.50Q50.64 33.94 50.61 34.86L50.61 34.86L50.47 34.72Q50.46 36.69 49.36 37.99L49.38 38.01L49.28 37.91Q48.12 39.34 46.22 39.30L46.25 39.34L46.30 39.38Q44.79 39.25 43.96 38.83L43.96 38.83L44.04 38.91Q43.69 37.80 43.65 36.77L43.49 36.61L43.62 36.74Q43.41 32.30 48.01 32.00Z"/><path fill="#222" d="M121.34 41.45L121.20 41.31L121.30 41.42Q118.35 41.50 117.09 40.97L117.15 41.03L117.18 41.06Q115.26 40.28 115.33 37.80L115.31 37.78L115.22 37.69Q115.42 34.35 115.42 34.92L115.36 34.86L115.34 34.84Q115.48 29.65 112.62 24.81L112.47 24.66L112.58 24.77Q114.49 25.66 116.47 26.04L116.44 26.01L116.59 26.16Q118.25 30.71 118.14 35.20L118.17 35.24L118.11 35.18Q118.00 36.71 118.84 37.92L118.73 37.81L118.77 37.85Q119.73 39.23 121.25 39.04L121.32 39.11L121.62 38.91L121.54 38.83Q122.88 38.77 123.70 38.00L123.68 37.98L123.82 38.13Q124.59 37.31 124.59 36.36L124.53 36.30L124.58 36.36Q124.62 36.16 124.58 35.97L124.61 36.01L124.60 35.99Q124.44 30.66 125.59 26.32L125.63 26.36L125.54 26.27Q126.59 26.22 127.58 25.99L127.69 26.10L129.68 25.58L129.55 25.45Q127.01 30.49 127.32 36.05L127.29 36.02L127.46 36.19Q127.66 39.28 125.95 40.42L125.80 40.28L125.83 40.31Q124.54 41.18 121.22 41.33ZM123.59 43.78L123.56 43.75L123.62 43.80Q127.10 43.98 128.93 43.22L128.78 43.07L128.78 43.06Q129.79 42.40 129.79 40.99L129.73 40.93L129.87 41.08Q129.88 40.17 129.61 38.61L129.51 38.50L129.42 38.42Q128.96 35.29 129.34 32.29L129.43 32.37L129.37 32.31Q129.74 29.14 131.15 26.40L131.24 26.50L131.17 26.43Q130.59 26.79 129.26 27.21L129.28 27.24L129.29 27.24Q129.55 26.67 129.86 26.10L129.80 26.04L130.32 24.84L130.38 24.91Q128.32 25.43 125.16 25.93L125.20 25.97L125.32 26.09Q124.04 30.82 124.19 35.92L124.28 36.02L124.17 35.90Q124.36 38.12 121.70 38.61L121.64 38.56L121.28 38.65L121.13 38.66L120.09 38.41L120.14 38.47Q119.98 37.50 120.02 37.01L120.07 37.06L120.13 37.12Q120.30 32.57 119.61 28.15L119.57 28.10L118.49 27.95L118.46 27.91Q118.06 28.00 117.52 27.89L117.48 27.85L117.41 27.78Q117.20 26.54 116.94 25.78L116.83 25.67L116.75 25.59Q114.06 25.26 111.81 23.97L111.76 23.92L111.82 23.97Q113.91 27.43 114.63 30.82L114.58 30.77L114.62 30.81Q115.11 33.01 114.96 36.51L114.98 36.54L115.07 36.63Q115.04 36.71 114.96 37.81L115.07 37.93L114.95 37.81Q114.82 40.18 116.19 41.14L116.26 41.21L116.14 41.09Q116.59 43.40 123.60 43.78Z"/></svg>